<mxfile host="app.diagrams.net" modified="2024-02-20T10:28:34.841Z" agent="Mozilla/5.0 (Windows NT 10.0; Win64; x64) AppleWebKit/537.36 (KHTML, like Gecko) Chrome/121.0.0.0 Safari/537.36 Edg/121.0.0.0" etag="aWuSs7_o2M9tGnDjBhnj" version="23.1.5" type="device">
  <diagram name="Page-1" id="NihPwsWd1EMZJJzlmrs9">
    <mxGraphModel dx="746" dy="505" grid="1" gridSize="10" guides="1" tooltips="1" connect="1" arrows="1" fold="1" page="1" pageScale="1" pageWidth="827" pageHeight="1169" math="0" shadow="0">
      <root>
        <mxCell id="0" />
        <mxCell id="1" parent="0" />
        <mxCell id="bf5EPzBGNftu-JXjtIzk-1" value="" style="shape=image;verticalLabelPosition=bottom;labelBackgroundColor=default;verticalAlign=top;aspect=fixed;imageAspect=0;image=data:image/png,iVBORw0KGgoAAAANSUhEUgAAAk0AAAJQCAYAAACTslAdAAAAAXNSR0IArs4c6QAAAARnQU1BAACxjwv8YQUAAAAJcEhZcwAAFiUAABYlAUlSJPAAAABhaVRYdFNuaXBNZXRhZGF0YQAAAAAAeyJjbGlwUG9pbnRzIjpbeyJ4IjowLCJ5IjowfSx7IngiOjU5MCwieSI6MH0seyJ4Ijo1OTAsInkiOjU5Mn0seyJ4IjowLCJ5Ijo1OTJ9XX3btmA2AAB0R0lEQVR4Xu39sZLqTvvgeT61V9BWX8AsOkZtWR0xjmS3AcepNRqXtUTEOOCU04FJjLHlCKcjwBpcxthyCoy/Dc5EjFVRRonoCzjWuQNtpiRAEhJkClHFqfp+3le/OhKJSKVS0oMyU9z9/fs3kow/f/7If/7P/1n+5//4r/Jf/vv/S/7Pv4H81/Q1AACAz/EfMvxP/01UICLBiUAkjlf+f/9v+b//43+T/yVdZuo/hv9J/pv8n/L31Adk/D/SvwAAALfjP17l/5D/VX79P9P5pv3P/yH/3/9D5P/z2/zWEEHTj6Kj9v8k/6li+q//43+m6XA97IPv7Rb2L3UM/xZ9p+ioXv7HUP7Tf1Mh0/8+lf/N5PbR//Xf5b/oOv5f/4cY1/D/5X+T//h7+i5WEc1zAADg6/zP/yH/9b/8d/m/0tnE/yr/+//9H2YB0yeqDJoAAABwUBo0bTabdA4AAABaadDkOE46BwAAAI2O4AAAAAYImgAAAAwQNAEAABggaAIAADBA0AQAAGCAoAkAAMAAQRMAAIABgiYAAAADBE0AAAAGCJoAAAAMEDQBAAAYIGgCAAAwQNAEAABggKAJAADAwNWDplX/TvqrdMbAtdPj9m0nntzd3R2mf3YHr6T/T+f/33TL9YfzIfBv+5Q7TW8f2/RfZq6dvsrEO5xoy0482ZOxN9l95jb3vuOpry6dB/qkVp4uP+0+/+gCUHg9Z9UvTRtPXl8mq0I5nUq/nzzZb+oFtquJ9HPl5ElfrXir81DYmNZgLVEUxVMYuOlSWPvE/XtLbr3+/CvnQwDHaJ7LGKwj0edY13VlNp6kS3e28jzcxP9yg1DWg1b8b3WKjt+XO0n7y/18FE2lnabU2lO9bCm+uBKEh/dlp+x5PnsBWPpqgVq3/jt7KYma2tN9Op3H3fviaf0kMu7lg61T6eNJ5/NyOvBzxu9yPwol3K97LY/yLL3OLE31HbVlqrd1mq0Bn+iT9i8A/BRXCJrSJgnPE6/fl5c3tWjxLH09r5cf3SK5dnp7D92uuJtF/hv46llm6hITfNlVZiUvKr7wH9vSflSZmL3k7mCdp4K70UNJMHiKk/69wHYiveGDLNdTGbRbKhcH7cFU5txJ+kIN7F+c8e+fDwEcXCFoSr5dh/O5jB7v4yX6/szjaC5zfWfl6Fv3tdPX8GsgI38jw+fDCWcynqlv60/yK51vlG5G8Q7BjL5zVdyM7WQsMzeQJ728/aTCt5mU3Ww6yblXweD7mWBLn4R3TYotVdZr2d9Uq2H1PBRR5Va1V+I7aRfuM93Et79IpJPXn8j2RCvFatLPp/fUNqtl2f2QZZO+Vp+arSp3tQ2H9+mL4Eom/WxTcBNO799c87HatuSTC03Qhe0xKn8VPO9e16/tmmr1Nm51nnbr1+WavuWQF71M5aF/XD7NlExx3WrS+Whk5d/gfAhg72rNc61WS9rqi+ybPoI36gKvTtBqUaVrp7fVfgrEnY2Tu03qhL/YuNL93eAHWHpdbMTt/lZbqbUkudlkcDHOCt9l495XBjAHb9JUt4gP9c334dd1y63lPMnTfC1rdfHYNT2N7hfiOIcLcJa+GHcW98lFJU2/nj/Ky6K8qdA2vXWfGh00O2O5Vxe63fuiSF0EZSzDq7ReVu9f3Xys8+yqAD1cD/b1bbAOJXDVct3MV7gQG5V/axC/rpsKNzMVSI90c2Eo3beOOHcdeesmTdrLh5l00qAsbsoO1XGo8jv2HFmoEsk2747ux9LbB3Z16SAyXXdm/4ajexk7zXWq/tfPhwBSf//+jbLTx8eHOmc0YRmp82PkL/U//UjEj9QJ74RrpzejrhfJOtN/q4uEOm+7kaQL1Uk/XlYlm7ZakndV/IfJDdLXSoRBpC5XUe5j020u+6TjPKptUOmP1pHS6XN5qUhnT2/nZesyK89y2X2ZFW9v+Qul+8E2fdb5/J8uo3P1zUSd/RvnW21bkizcHws2ysq/uD1H5VMs07juV3+2fv+pfJ0r/5Ovx5/dzHkl2c/XPL/ZpgdQx9XuNK366tuj+lYafyltT9W31Jn0TjQzXDt9HYORL5thT3rDTdyXqFmZjuDqSnLK9nUhG7ebbyY700S3GTqZ5gZHei/6Tkl1U5u68KTfsr9/52B9B2N5/1JobvNkIk8SrQdpqgPb9FZWLzIr7tsM/dmHQQf12e5ffbcs7C7E8XTTmyOLbnbww2ervsvb+t0VWbymc/b0HdzKY7s1kK46r2Ra6Wv7DudDAFdsniue7Afr0yf/a6evRQUmgbtRAUval+hLbOMTu4qC9hfsZHJUyFTdRHe4SEYS6qBsthDzS8uDNNOi1pZ7VX7vYTp7JcnjDIp9UjzRxVZFd0LPNiet13P59dKr7D9km97UNmm/TOc+i9n+bQ3mEqhaNlP/nZ84tuqUv50z+T3bT++0WSeT78KkB8w2MYT/W5wPAfDIgdPSxwns+3ZcifpmWHnHYvsa96fa35XKTnEwdH4UXUutfx12ZdEr7+OTpzuWHh6ToDs1XxIY/Hpo5qJTadUXp7MQGc0z/V3UpIKarkF3ooOW2g0jeRj2DJ9bZJu+XCspoHTuM5juX935uxffYdJ3nCr7DjVW/qec6WNn1E+vmr/M5LtkIvgAsEPQdONKm+Z2bEbRtQYy777JuEbP1s0Ft4ra06U8LKoDi/jhloUHgNpYvehRjXOZFh5noIOaUvEoLovPs01vq/0ofvHxFlkXlo+J4/27C5jmccCgm+rmo/fSwMm6/GvZyOK1vID08SHd3+mcPd0Ebz2gAsCPRdB005IHavqjqn4zdqPodHOLHq3U1IggM22ZzvVdLq/wRPKtigc8cTpv6pt+/gGgNpx7VzaL18zwdv2U8WRIe/os0hIz6cRDyov56cjMH5UEqLbpbbTlKRAZOoXyUZ+ly+fuwvKxp4f/9+R9lARMO/puZRI45QO4euVvy5eH997RIwZWE096i+7JpsOz1HYtZRw/BiG/f/UuSB6F0G/m2QMAvoPrjZ77x8QjTvKjjLKDao5HIO1GriUji/KvZaf8CLfj9STT0QigM/mJR/3kXlefU/KeyvXqEUol6Uun7AfXFapy8t14JNRuva4f6MV5BnnKZydUb8mXheuqslDr3e+Xo9FY+vVl5LvZ97mRH5Rsp2166/wnwmWg1p9Np8qqrHxs2O7fdKTafnlh9NzhPdnRd4blX7HuQz1W79Gry+Q5ztau/PVLeqTc7v1x+SzT/GVcUP5uSfnr7QCAnTsdKKmTxN6fP3/EcZx0DgC+kG4edd5lVPg5IgD4CjTPAQAAGCBoAgAAMEDQBOAmxb895wxlozvip89NavZ3+ADADn2aAAAADHCnCQAAwABBEwAAgAGCJgAAAAMETQAAAAYImgAAAAwQNAEAABggaAIAADBA0AQAAGCAoAkAAMAAQRMAAIABgiYAAAADBE0AAAAGCJoAAAAMEDQBAAAYIGgCAAAwQNAEAABggKAJAADAAEETAACAAYImAAAAAwRNAAAABgiaAAAADBA0AQAAGCBoAgAAMEDQBAAAYICgCQAAwABBEwAAgAGCJgAAAAMETQAAAAa+TdC0nXhyd3enJk8m23Qh9igfAAAuczpoWvXTC23J5PVlsrqdq29rsJYoWoqfzn+2Vf9OvBuORpoun1vb3lsvfwDAv+900NSeqgttJEt1pXWDMP73flo/iYx70l+laQEAAL6xC5rnWjIYPchsPEnnAQAAvq/L+jQ59+Ju3uX4ZtNWJv1dH5pDc15Va9521Ze+54mXSe/1J7KtbG3ZykqtP59+pZYWqXx4hzR3udtiK+ln31+zaWe3/s5MZDN0Dp91Zr3b1US8bN7U9jfX3GlaPjvm+6ve9trVh9hW7R9VJof3qO1R2zApNMPVLX8AAKz9/fs3yk4fHx9R0dKXyA3CdC5j6UfiBunMzjLyRaX3l1GYeUu4DCJXLVeLj6mE2bTaMnAjEV+trSiMAtdV+VHrT5foZUtfpdfLxY3yWdXpK/KvVG6bJZv16LzG5ZPOJ5JtuDwvtuVTY38p5ttbY/26Xul8LrPrT7dBr6vkc5vajwAAVKkZNKkgR13Yji/A6hUd7FRdaUN9ofQzF/PTdLBTXJVef9XFMf7skjwlF+GSz43zU5K+BuOLdmmguZMEeFXFZ8K2fOruL9PttV+/DrKq90nV5xI0AQCuzbh5Lt/04Ujv5V7m4VoGrTRB6nWxEf+xnc4VtAbSdWfyXLvz+FaehyLd34UPTbUGo/LRYe0nCdTn9gpNNSu1so0/OtqGa1q9zMTt/k7nilryu+vK7KVuAdmXz3X3V431r15k5nYr90l7Gsn6M3cYAAAp46BJfYvfj5wL1dd6mS3kNX2taNbJ9yvJTsONyNtHPnjR/Xvy/VfUpObV9bYgTP/a0p3WfRX4PR/69WwnMp65EjxVXNCv5ONN5OHXtS769crHdn/Zsln/NimgdA4AgNtRqyN4qz2VddiVRa9f0glcdGtM/vEEhSl3p2DVF6ezEBnNJcymW8+l66Zp9pz0bw2Fu01fcZdJ+/VweRBSrV75WO2vGmzW30oKKJ0DAOB21B891xrIvPsm48KDmvQdHZvmpbi5KpjLtN2S/KW57ELdkqdAZPFaHnRsJ2OZpf8+lrnb9EV3mbT2o8rDouoe3fZ0c9ZZ9uVju79sWa+//Sj+ZlH91PL4gavlwToAANd00SMHWoO5dN86+QdctqeylHH8yIBV4ZkB23gY+Z1Kf1ju3LtxEHFIuk2b65Kmm6L4Mxc98SbZIfTJEHtnIXJ0cyprd7ept2j8LlO8HSogO2yaytOkHw/7zw171+XzsDh+pIKamXg9WXRDFUCmy2qwLh/L/bVjtb1W62/Hgd/QKTyCQb1Xb8Nd50385VSlyjPODwAAdZ0cPRePOpPcdDRCaZemMCIsHlLuZt/rRq4fRLlR5LHDUPLd5Lp+nE6PJIuXHY02S4fnZ9/j6yH2yfD2eFnViK00v1UvX0I/JiGXp3g7ykd0HZWP6xaG2F/CvnzM99fBRdt7Zv06vV+SvmL1MZv8AABg604HSuoCs/fnzx9xnAv6Dt04/cO1zqIr0XqQLgEAADjvoua5f89Knocb8UcETAAAwM6PCprijtBuIF/Q/xsAAPzjvn3QlP3tOUf3LN8MxVH/Lgz6AwAAOOnH9WkCAACo44f1aQIAAKiHoAkAAMAAQRMAAIABgiYAAAADBE0AAAAGCJoAAAAMEDQBAAAYIGgCAAAwQNAEAABggKAJAADAAEETAACAAYImAAAAAwRNAAAABgiaAAAADBA0AQAAGCBoAgAAMEDQBAAAYICgCQAAwABBEwAAgAGCJgAAAAMETQAAAAYImgAAAAwQNAEAABggaAIAADBA0AQAAGCAoAkAAMAAQRMAAIABgiYAAAADBE2N2cqq78nd3V0yeX1Zpa+cs+on7/Em23TJhbYT8Xb5KEz9skzZpq9DfUbfO6zX609UiZ1gm96a7f6qv3+v4ubK59rs8rNd6fLJp2/q8ALwc50MmraTzEknnnYnqpX0c8uzF/ytTDIn8+Mpf7KrTutJf/K1p2kbq35PxvdziaIonsLum4w9gwuZuviNZ664bjrfGF+WaV6y07SdvnzENr0FHZT13uVxfljv/PFdelXlY5u+Btv9VXv/Gkou8sX6v1XL+3JXjFxvsHys8l+DTX70lxBnLKp81of0I5GF0+CXAAA/09+/f6Ps9PHxoc4xGWEQueJH6oJaYhn54kZBmM6WCAM3Er/83XtLPxI3SGcO4veq5SdWfxsq8r/0JXJPFY6i0+jyMUlr7OQ+K2Gb3lLVtunlZVXDNr012/11wf41kdRzPwqWYa6uLwNf7ZekfmTdWvnY5t9aQ+VvdC4CgBNuunmuNVjL8mEovRu/r756mYk/GqRzB+1HXzaL13SuRHqXKXhq4nbO7fp4E3n41UrnDpx7V2Yvx1/9bdPbst1ftfevCVUHesMHWa6nMmi3JLvV7cFU5sHxLcibKp8a+bd11fIHAAs336ep/RSIDJ9Lb8Mfmg+9L+2v8PHmyr2TzmQ59+Ju3iv7Xkx6Q5FgLoPj69+38ush/UdB+L4R//E4YLRNb8t2f9XdvyZWz7oOPEnVVukvDlGhjfSWyqdO/m01Uf66mTA+3L75FxQA13X7HcFbv+VB3uS1JCh6XWzSf21kUZbgU2xFXavsqZP4cOPL6GoR05u8TPqZDt5JH5NqtunNtadLkXFfVtnVbSfyIoGUXcNs09ux3V8196+hqrtGp9xS+dTJv50Lyl+Vya4+O5036Ybrb/8FBcB1/QOj51py727kPUxnM353d7f+Xen+/qqzYUnGztrKZDwT98Q39GY8yjztCBuFc7l/750ZoWeb3lRbnkbqOu94yUXMU397C7l/GuSacw5s09uw3V919q+plQoIKu6inHQr5VM3/zYuKP/WQNZxfQ5l6YsMe4VAEwAs/QNBU7X41n98UvzKb5A1rhir5+veZYovFmuZDtqHi2irJYPpSB6Gz8fNGbbpba364rw8xp8RX8TW6u96JO/qol8ak9mmt2K7v64aEdRzU+VzbU3kpyXt6ToecdfpTdJlAGDvHwia9O35a3+bvUT1nbByn3WXqcqbfFhdWG3TH9Pbe9zXpi26u1pZs6pteju2+8s2vY12rXXfTvnUy7+d5sq/NRiJv1nwvCYAtZ0Pmlq/pKLfqbr+f6hL6oNct0vDa/wZX9b6ZkB3zH0riyzCd9m49+rSkhXGfTQ2QyftO5RMnVm67Fs+SKY66N2UXg1t09ux21/26W1Urvuk2ymfevm3c83yBwAbBnea9LfJmZSOZP6Ek9b2dRGPzimLmW5l9Fw89LnkYqWHSrvd3+ncTlumcZNiftJ9LtwgvHikUdL5taLvxupFZsUA1DZ9DfqiV8Utufrbprdlt7/s09vQnbofFr3K+hs/HLLwQNhbKp86+bfVVPlvJ2OZud2b/gIG4MadfbilFj/80I385eFBcuFSP7ju9IMttfoPtwyjpXqvq5ZXfUTgSqQ2IZ6aeMjgJZa+ymsmD3H5nMh7ke2D+k6Jy7x0f5U//NA2vTVdf1w/yqxerT9dls7n2KavwXZ/Xbp/T4q3Vx1L2Q3W9V99ZrJf0kU7t1Y+tvmvwTg/4TI5VwXLKNy/mJxLdF4aOsQA/FBmQZOmTox+JkiJnwBcegIKc8HM8ZQ/sVenTU58pyQX+yTt158M1XbHF4kk/65vdkE92v5GohSVG3URPdpfuYtanm16a4X6E5fPqdXbprdmu7/q7V9jauP0+nWgmvuMqg+5tfKxzb81i/yoD42DrExedH1usjoD+JnudKCkTip7f/78Ece5/BY/AADAd/JPP3IAAADgsxA0AQAAGCBoAgAAMEDQBAAAYICgCQAAwABBEwAAgAGCJgAAAAMETQAAAAYImgAAAAwQNF3Bqq9/RPhOPMNfEbZNb2ar1rv7QWM1eed+NNU2PQAAP8vZoGk7yVxIM1O/9Iq6kn5J2uJUFhxsVxPpe5l06qI9Kfnpfbv8fIHtRMYzV1w3nT/HNr2hVb8n4/u5RFEUT2H3TcbeRIVG5WzTAwDw05wNmlqD9f5CuvTVAn8Z/529VEUprgRhkl5PgQoG/OVhPl5HgQ6EnM5C7kfhPl04upf3sXMUYNnn53Otnoey8UcyekgXnGGb3siqL523rqwHrXRBUm6jh6H0yu5m2aYHAOAHsmieW8nLTMUoj21pP8ZRSjPNN9uJ9IaiAq21DNqZi3Z7INP1Uh6GTuVdravk5xLpXaPgqZ0uOMM2vaGVKhh/NEjnDnQ5bRav6dyBbXoAAH4i46BpOxnLzA0kvr63n8SXmRzf3HHSv9Wc+3w7lL7TIsFcMjc5MtoyXapPGh83E5nlJ+/QtOfJNW6gTOLor2pbjtmmN/Xx5sp92a5w7sXdvB8Fl7bpAQD4iYyDptfFRtzub0mu7y1Jbu4UL6ctmUbrk0GAbvY5NANt5WXmSvf3iTe0H8XfLOS1EOSY5SdPvyexkUVxhZda9WW48WVkGgHZpje2lffdZhqxTQ8AwM9kFjRtJ7LY5IObRprEtq/yJg/yyzZuqJmf393dXa4zgZq1rUzGM3GDJzFraLNNbyNM/5qyTQ8AwM9kFDRtXxeycbv5O0iGTWLXUDc/h07kp++GWVs9W95lskxv5XwTaZ5tegAAfiaDoGmbNGtthrkh/nd3jgpRzjeJndT6JQ/yJh+nWsq2H4W7UVfMTy23dJdJa8m9u5F34xtItukBAPiZzgdN29e4KSz7GIH9lIz1v6CJri2P/un+RcldpftDgHHV/NQRxn2CNkMnF8R1VAQXLzsa+meb3t6vB5G3skg0fM+XZco2PQAAP9HZoKm0KWyngSa69lMgMnwuD3TixxFscsPhL8nPdUbPtWVaDN7UpOM3NwglmhZDDtv09uJHBZTcOtKPFtCd54ts0wMA8BOdCZq28lwIWvLMRq2d1BrIPHiTjg5kMk8A36764jnxA5zkEEdclp+rjp67Je2pLGWcezCoLs/xWyDzsmjTNj0AAD/R379/o+z08fER7aiXc5O/TF9QwsAtvO5H+5eXfuG1dHKDNMGxUL3HzaX1o2AZpq8qJes0zk/qkMaNgsyqmxS42TyoKZvJErbpzYVR4B/KxPUDteQU2/QAAPwsdzpQUhfJvT9//ojjfM2IqvjnVIYPsoym9KMBAAA3xeiRA59i1VcBk24+m0lH9zvSP9i71c1EE/Gu9ARvAAAAU7cRNG1VYNR5E9dfSpiOigtHIgvnLv4h34cr/NQIAACAjZtqngMAALhVt9M8BwAAcMMImgAAAAwQNAEAABggaAIAADBA0AQAAGCAoAkAAMAAQVOlraz6ux/4TR62ecEv7JW49voBAECTjIOm+MncXnqBjy/ynkwm+mnd+Yu9/imUfZrM1C+LCFb9o3SHH43dyiT3eRO15POs+j0Z38/jB23GD9vsvsm4wTxce/0AAKBZRg+3jH8TbvEgy/lU2rsnc29X0u91ZLbxK38rbtW/k44s1f868d9oWv6Lcjrd+D6UdfGx3/FnjOWtOz9+7Zp0MDe+l2g9SBckKvNp69rrBwAAjTO60/S62Ig/ygRMWqst03kgbjp7bCUvMxH/sS3tR19k9mLX/KR/WsUZi4w+OWBSVirj/igf0Gh6OzaL13SuvmuvHwAANO+yPk2tgawr7jJtJ2OZuYE86RfbT+LLTF4Mo6atvhPjLKQbrmWai9TyDk2Bzf6g78ebK/dlvyTj3Iu7ec8Ff/ru0HETYqFpsdA2abN+AABwG4yCpt9dV2YdT/qrrWwNgxN9d8rt/pYk5GlJcrPpfDgQNwWORZbR+uyP9OrPSGxk8dpU1LSV991qDbSnkYSBK64KEMP1YL+9g3UogauWB2GhWdJu/QAA4DYYBU2twVrCcCQy7onj7O6q9GWigqhS24ksNq50fx+invNNdGF818YZivijp9K7V0U6mEvkP+syYfrXnC6feXchTu5OkyOL0r5Y9usHAABfz7h5rqX7MK3X6WivUML5o7yPndJRbdvXhWzcbv5O0Zkmus2wE3eCToIzR7zS4XZ5OlhJ8nP+rpS5snaz8+LAMg6c+tKPA6aqDt311g8AAL5WzT5NrTSICsXfDOU5F99sk2YztXzfpyeeHBUyVTfR6WYsHWTs1tt962QeP/CZWnLvbuS9xg2h1mAugdrKmfrvvDKKq79+AADwdS7rCB4HAOk/d7avcdNcECbPH8pNS9NRdC0ZzAOR4fOXdIr+9SDy9lESsIXvsnHvK5oOdZNcL77DpO849U48c6ne+gEAwFc6HzTpkWwqACinOzXnR4KVNs3t2Iyiaw1k5M9kfOJu07VGz8VD/0tuBelHBejO7cd2AVPShynu4zR6rwyc7NcPAAC+mtmdps1QvL4KALIRgJqZ9Hvy5o8yAdJWnof6mU7HzyBKmI+i0+LgYvhcecfmOqPnlPZUljLONQ/qxyCM38qa3VbSVwHTe+F5Ui21jiRwKvl5FKv1AwCAm6CfCJ6dPj4+opylH4kbRKH667qinx6eTm7kB2GaSNHp9q8lk79MX1PCwC287kfLkve42XVGYRTsPjO7stRhnW6Ue1sj1Gf7hzy7viqD9JW9MIjc9PV40uWUvHDIdzyV5c9g/QAA4GYY/YwKAADAT3dhR3AAAICfgaAJAADAAEETAACAAYImAAAAAwRNAAAABgiaAAAADBA0AQAAGCBoAgAAMEDQBAAAYODbBE3X+vFewNahLqZT3+y3Fm/PSvr/dP4BoFnng6ZVP38ByE6eClBWtxGhtAZriaKl+On8Z1v173I/wPsVJt5h35Rd57IX80Net7n3HU/5HxzW21meLj/tPv8ogCi8nnOyrvWP69qp9PupmSB6u5pIP1dOnvTVivUPLReDiqQuRvEUBm66FADwrzsfNLWn8cl/qaIRNwj3F4P4gjAfyfu4V34BxKcbrCPR12jXdWU2nqRLd7byPNzE/9L7cT1oxf9Wl/j4fft9qlfgLzP7eSrtNKXWnuplOjh1JQgP78tO2TghG0DoOqTXrf/OXkoqzYm6Fq2fRIp17VT6eGomiNaBnzN+l/tRKOF+3Wt5lGfpdWZpqu+oLVO9rdNsDQCAn+ui5rlWS51U5115Uxfo27jfBO2h2xV3s8jfYVk9y0yFEEETUUQtK3lR8YX/2Jb2Yxw15e5gnaeCu9FDSTB4SgM/PL2dSG/4IMv1VAbtlsrFQXswlTl3kgDgx2imT9PmXcL0n/riGPeDyDaNbNUy73SfI9384WWbP042/W1l1ffE23/OnXj91XHglmm+yd6hyDUZVd0my+VZT+rzVNpJoRlu17Slbzhshk4mfTKdarI75KOZJqS9XwMZ+RsZPh+2bTKeiRs8ya90vlG6nL1DMKPvXBVvTmwnY5m5gTzp5e0nFb7NpOxm00nOvQoG388EW7r+7ZoUWzKN1rK/qVbD6nkoosqt6l5LfCftwjsxuolP17V8fVZfRE7UidWkn0/vqW1Wy7L7Icsm/VGTatUxkmV4vADAv+zyoCl8l417n/lOn97S3zWNvKqTde9F7kfzpFlj+SBDp58LcHQA1Hv5JfNMM1G0nsuvl17JCVf3wenJ+H4k813aKJSRjMXxxvKWpoqlzTfFmwG7JqPK/iY6CHDGhzzH0zz+jGGhNWbXtFXVRHRoBjv2ukiay1S4JYvXZi8s7adA3Nk4DVonsti40v19QfRwIb2tbvd3eqemJcnNJsuoKa1r50OUN/loqDg/VIV6+HXdcms5T/I0X8s6U29G9wtx1HFSVkK6X1lncS/zTPPoev4oL4vypkLb9NZ9siyOFwD4l10UNG31t8vOTPzRINdscbCRoT5Zp00bsTiQmR7SqxNu560ra/VtPb+Olko6l+7CKdwl6smiO1fBSDa9TruWsKs/8VJ6m94kCNeHPMeSz4j75TTkd3d3QbpCQNMaSNdNgrHt60I2/uiiOy7H1L510rsK5/r1lARtdk10SYdrT++X+SBdlne4y9eR5q7TK3lX+b5voJXvpFZL/z+nrQKXwD1xN+7hV/49uql8dKJy2qY39nnHCwB8Naugqdj85PRe5FF9e61unXDji1zhepCzepnFdyDKteLA4nBHQndmlsoAozUYXd7xd/UiM7dbGWDojtCn7h7ZOHyjv6wJqcpAXRQ3w570hpu4L1GzMh3Bz1wZ46CtWKZnmujydc2R3ou+U1JdToe7fF83gvKz6Dq4vH8pNLd5MpEnidbHQaVteiufeLwAwFezCpqORzRNJfflsga75o9Dz6lr2SYZSuf+cSowCdyNCljSvkRfYps0Q26G+wt2MjnxHaGqJrpsXQt1UDZbyGv62nkP0kyLWlvuVfm9X7naJY8zKPQjUvP71tsSuhN6tjlvXdmcnbBNb+pbHS8AcEYzHcEv8OtB5M24A8q120lEWkmG0rl/Xfo4gfXpu30X002uVXcstq9x01zp4wniYOh8E11LrX8ddmXRK+/jk6f71B0ek6A7NV8SGNjVzxpWfXE6C5HRPPM4AzWpoGbfemtEN4eN5GHYMxxUYJu+3Pc6XgDgtC8PmnTfls2i6h5Ccpfi0LTUkqdAKjtNxyO00n/X1n4UvzhcP0t3ei088LGuq42euyGlTXM7NqPoWgOZd99kbDKSq2Bzwa2i9nQpD4vqwCJ+uOUF9SFung7mMi08zkDX9VLbiXg2n2eb3tYnHi8A8NW+PGjSdymWD4vjIdZqRo+SW3TDXJ+p1kB3DtfNCtlHDCSPIHDUF/ayL+f5flGaSj/px319jrXjwGzoFB55oPKjP+Ou8yb+Mv/AR825d2UzfJbDW5LP0P1Iqu50XHP03G1IHqipBwqUsxtFF+/7t84nP0w1eRbZoleoD7s6V1EfTMX1Rn1pONR93ek9efp4afWMzaSjHxmQP2BUfjoyK+3wb5veRr3jBQD+SX///o2y08fHR5Sz9COV7HhygzRBXhi45enTyV+mCQvCZRC5biat60bBMkxfLQpVttxIBUj79K5asVoaqWtwsiz3QWEUqPTFdR/yquYLH6Xz42fzo9K4fhCFVVlSlmp9uTy5frQ88YZTn2+tZD9li2Dp518TUXmLX1Flk9vO4rRLlzheTzK5xQ04k5/jeqI+p+Q9levV9a+qbhanqkpnQ+1HXYfyda6kPhjkKZ+dpC5nX0/qTXTYL9ljLVTHiS6rUNV1VY8P73MjPyjZTtv01vlP1DleAOBfc6cDJXWS2/vz5484zvX7DgEAAPxLvr55DgAA4B9A0AQAAGCAoAkAAMAAQRMAAIABgiYAAAADBE0AAAAGCJoAAAAMEDQBAAAYIGgCAAAwQNAEAABggKAJAADAAEETAACAAYImAAAAAwRNAAAABgiaAAAADBA0AQAAGCBoAgAAMEDQBAAAYICgCQAAwABBEwAAgAGCJgAAAAMETQAAAAYImgAAAAwQNAEAABggaAIAADBA0AQAAGCAoAkAAMAAQRMAAIABgiYAAAADBE0AAAAGCJoAAAAMEDQBAAAY+DZB03biyd3dnZo8mWzThQ269vpvxXbVFy/ezt3kiedN5Btv8lmHfZ9O/VX6yhfYTvb7x/ukirjqf+7nAcCtOh00qQto7mKRnby+TFa3cxJtDdYSRUvx0/mmNb1+fSG6uYuQuiD3Om/SXYZqW6N0Wst6PZBWmuSfdqo+q8lTwVDZHkn2fVIeYeCmS79IayBrlY/ltSp6kaoT45kr7hdvNgDcgtNBU3saXyj0CdoNshdSNa2fRMY9+cov3WjW9nUhG38kg/a3CJGOnarPYSjdt444VOic1fMwrhOjh3QBAPxgFzTPtWSgzqSz8SSdB/5hLVWf10vxZ+Nv3fxqJb3LFDy10wUA8LNd1qfJuRd38y7H3823MukX+oF4falqzdP9aPqel+tL4/Unsq28eG1lpdafT1/etFKP3fpt8j/xktc7M5HN0Nmn37+v5IptXz52dnlyhhuRWWf/Gcmk9luaLrGS/v61tH/XVi1T+cstK9iuJuKlnxNPKn2ueTfbV0dtWz9Nm5S7Xv/ufcX8NGj7IW/pPy91dnuLcmWoJ7W/1bZPDJtxd/tw994mAr9JbygSzGXwTW88AoC1v3//Rtnp4+MjKlr6ErlBmM5lLP1I3CCd2VlGvqj0/jIKM28Jl0HkquVq8TGVMJtWWwZuJOKrtRWFUeC6Kj9q/ekSvWzpq/R6ubhRWVbN1Vi/Vf4TlWVapsb66wj1Okt3UBm9n1VZBH7kun4ULNMM6jqh8pXNri67uD6k84mkTItloMtFVUtVT/RyvS+Seb0/9q8b57FcadmHanvUZ+l8nmJSRjbbG4vLTJXlrgxjaZ2Lt/34PcVtCNU6XHUslqy9nnQ/7rbUqr4CwDdVM2hSF3F9ki4JIE5eVEIdOOUvqKfoC2ZxVXr9VSfv+LMvDJqaXH9Z/neauAidWn8dJ/fdkSQ41kHzya3QF9+jwHonCYqyH3kUDBTzdHJ9ZvRn6GDkaFLBXy5uKXG2jCy3V70hCT4rPreqnmSXx3VWrfRM1i0k+cx+bhP1FQD+dcbNc/mmJEd6L/cyD9dHt+5fFxvxHyv6QLQG0nVn8ly7fWUrz0OR7u/y9oLWYHTh6LZrr/+7cSWYnx5Zt3qZidv9nc4VteR315XZy+d3vlYBQL4jeBRK2BUZO95Fgxust3f1IjO3W9kE1p5Gsq5sHwtl4nnSex/JetpuboTj6lmGG19GtMsBQI5x0JS9yITqa6fMFvKavlY062T7V+Qn3W3m7SPf4UL3/8j351CTmlfxV0GY/r2Weus3z389117/NX28iTz8+hcuvi0VFE9lvUwGN9TtEmS7vdvkDemcnc1wLAv196HqS0otW5mMVeAXPAndvwEgr1ZH8FZbXVzU1/JFr7xTrr/MfoM/nnLfnFd9cTrq1D+aS5hNt56L+lJe4KR/r6XG+q3yX8O1139lvx6Og+Sblg5uqBue225vK3lDOmfHDeayXo9ExpfdHcsL5V0F48VBCvuBC819EAD8c+qPnmsNZN59k3HhJDoY+VbNLXFzhjr5T9vqm366LFH2bb0lT4HI4rX8orSdjEWd2y9gv367/Nu79vqvrf3oy2ZRdU9ye7o59yuE76Jv4NUNz623t/0o/mZRPdpNBc3HIxiz2jKdd+Wt08yIuXh92eA8nfTN5fhu85T7TwB+roseOdAazOMHAubipvZUljKOh42vCmPit/Gw6juV/rDcuXfji8wh6TZtjkqa8oriz1z0xJtkHwGQPCLAWeheNpexXb9t/nfi9w2fM49hUJ8xSX7CJDvEvO76b4auDw+L40ckqJmJ15NFN1QBYbrsi+ly9TpJ01TtkNR6e9txoD50io9gSOrcXedN/OX0dFOZfkr47s5v9jMBAM06OXouHnacH2F0NIJml6YwYih+xICbfa8e4ROUjE46DK3eTXoIu06nR/DEy45GI6XDt7PviUcPpSO69HRqhNNZNuuvk/+EfmxA7jPi9xULqP76zWS2qWwq7lc9eqwsXTpVFftRfXALQ+zjkZXZ15NReYfPU9us02XqpPUuLqnP+clV6yyU/9n3lOfj7PYW6PT6kQeH9SbHy3F1OJRT9ljUo9uy721qoNu+ju0m60IHgO/jTgdK6mS49+fPH3Gca/cdAgAA+Ldc1DwHAADwUxA0AQAAGCBoAgAAMEDQBAAAYICgCQAAwABBEwAAgAGCJgAAAAMETQAAAAYImgAAAAx8m6BpO/HSX2Rv6odLAQAADk4HTfEvrOtApGTy+vkfGP1ircFaomgpfjp/qfjHW73s9qpgbKKWnfzFeQAA8F2dDpraUxWIRLJUkYgbhPG/99P6SWTck/43jCD0XStn/C6jeWZ75yN5Xwxlk6YBAAA/ywXNcy0ZjB5kNp6k89/H62Ij/mgq7Va6QGu1ZToPxE1nAQDAz3JZnybnXtzNe0lz1VYm/V0fo13zVl+qWvO2q770PU+8THqvP5FtZevfVlZq/fn0K7X0yloDWUcqmEpns82X2Ttuh/5Vaqq6Fbddxdu8T3entkelnfTVtpR1yrJKb1f+2mrSz5enTq+W3XnlQbFtegAA/nWXBU3hu2zc+0MQEVMX9ztHFjKSMDw0b4Wjexk7+eBip+U8ydN8rQKSQ/rR/UIcp6z/kAoIvJ6M70cy36cP1aeNxfHG8pamusTvriuzjqfyuj0RuClp82VQuP2U9K9S21x8YUcHW85Y7kfzNP96msfbMJylabKs0tuX/0oFXp3Fvcwz6dfzR3lZlGXGPj0AAN/C379/o+z08fGhroF5S18iNwjTOS2MwqUfueJGucWKChQi8ZfpXEEYqPf46t1mVMwRFVel15/Py0H82SV5qiMMl5Hv6vVJMrl+FCzLV1yWT628LNR6T+TxuKzt0tcpf72O0veofSxukM4c2KYHAOA7ML7TtBk6+6aYuztHei/6TsNaBtl+P0rcH+gxf+9przWQrjuT54oWq/O28jwU6f4ufGiqNRg1NnqupfswrZM7RirakHD+KO9jVQbe5LJmwNWLzNzuUbnttKeRrLMvWqavU/56Hcv7l0JzmycTeZJoPUhTHdimBwDgOzAOmrKj58KlCk1mC3lNXyuadQ4X0+I03Ii8feTDDj28P99fR01qXl3/C8L072drpUFUKP5meEHQp7b1403k4Vc6d55tes22/LX2YJprHl2v5/LrpVfev0qxTQ8AwL+uVp+mVltdMMOuLHplfY5Et9zsL6ZlU/5OSl+czkJkNJcwm05dhLtHXYKc9O9Xacl9RTclU61fDzpqSefOs02vWZV/pZa0pyN5GPYMHxZqmx4AgH9L/Y7grYHMu28yLvQsHox8mb2Y34pZvczEDeYybbfUZTer7MLekqdAZPFaflXeTsZycVdk3em6cgTYVt43rtxfEru1H8XfLKoDi3hEXiYYtUxvW/6q0MTqgZ226QEA+CYuGj3XGsyl+9bJj8hqT2Up4/iRAavC0LNtPGxej+A6LHfuXdksXjOj1LZpc13SlFQUf+ZCNwNlHzGQPILAWUgzz1HaDI8feaBmJv2evPmjo/5F8Wi7XKCi8jPpS69sA6QdB35Dx8s/UV2tX2/DXedN/GXmsQa26S3LPzGTTvxIgtwGq/V3ZFayvfbpAQD4Bk6OntOjoXajx9LpaOTaLk1h1FS4DCLXzb7XjVw/iI4HoIVqFZlRampyXT9Op0elxcuORmQl71EB0uE9/lIvjfzdsrLRXSbSEWDx6MBC/v2qIWzqk4PsNrhuPNIuGc2XvLf4Vl0+fkn5hBUfUSe9UfmnI+qWxdGC8faWlKFtegAAvok7HSipi97enz9/xHG+uu8QAADAbbmoeQ4AAOCnIGgCAAAwQNAEAABggKAJAADAAEETAACAAYImAAAAAwRNAAAABgiaAAAADBA0AQAAGGg2aIp/zPVO7tRU+B1foJbtqr+vU8nkiedNMr87eH3biZf5fDV9ZeXOHGNe5a84N2vVv9bnraT/1eUJABbOBE3pSe3MtD+ZtgayjiIJGvnV3O9NX4g+66Jn4tbyE1MBQq/zJt1lKJGqV8m0lvV6ILV+E1gFYGX1dzd56uJdVgKtwXr/+eFXV+70GFv66fy1qX0wnrnickwDgMmdJleCcHfBSgIif3mY/7STN36c7etCNv5IBu1aIdKx9nRfZ90gG4ipKQyl+9YRh7seOavnYbwPRg/pgka1ZarLftpO5wHgttGnCdBaLRmsl+LPxnJrN9y+THqXKXgiqAEA7UzQ5KR/qzn3Vfftt7LqZ/qCeP0TF6OtTLJp0/SrJi9e25X0vexneHFzzKSiWWq7mojnZfPjyeQoQ4fmS72OfP8bT/ol652k6+zMRDZDJ017mMqbyEzL57PyY8+sPBO7PDnDjcisc3hPPKntTtM1bvshb+k/L2WzvTHL+lm0K7Pde5vYbZPeUCSYy6ChG307dfqIrSb5vm2erv9q2Z03SVMcO3xOM+UBAPL3798oO318fESnBK5E/jKdqaDTqFVHbhCmS6IoXAaRCq9K3ruMfJ1WvRAekp9IX8PSV/lxo2CZ+YAoVIvdo3xqenmcn3Q+kaQvptWWvlqHq15z/Wj3EefyH7+nZF3H7MvnuvmxZ1ueO2Gg9k9Vhi9Quq2hKmdVb3U+TzHJk/X2WtZPrbgNoVqH6waFz7xAnCdVf/az16kfZuWpzid623LFk+wvvbzK7jxUVYYAYOtqQVPZSarsBHnypBnqC71/4YVABx3qglSxkqOLgb5YVJ6Iw9Ltj0/qmQvMzqltM70I1Smfa+bHWo3y3Dm57RdIyqdkygSZVc7myXp7LetnKrtc5+k4SLtEks/s516rfpjs43h/laU5WdbpuuN9W12+AGDjan2aHn6Z3dN/XWzEf6zoM9EaSNedyfMl7TGrF5m53comhvY0knXmxdXLTNzu73SuqCW/u67MXo4z5AZPco2eH3XL51r5sVW3PK9NBQD5juBRKGFXZOx4Fz0uw3p7LetnXigTz5Pe+0jW03a9EYVlVs8y3PgyarpdriZdBsv7l0LznCcTeZJoPUhTHTuMelw33sQI4Ge6iY7gs87hZFicdLeWt4/6HRK2H286gkvnzkuS39YZ9prlc223WJ7lWuoiO5X18kFm4/rPgbLdXtv6mbUZjmWh/j5UBdW1bGUyVoHfjQTdO229bzJB7no9l18vvcb63AGAiZsImvzMIwzKpupv2ue1fj3oqCKdOy9Jflsn4muWz7XdYnme5NyLu3mXMJ21Zbu9tvUzyw3mKngYiYwvuzuWF8q7CsSLgwL2AwWa+6ALtaQ9HcnDsEcnbwCf5suDpsHIv27zTPtR/M2i+sQaP/DwMCKr/ejLZvGazhVtTzeXXcHVy+fKbq08zwrfRcUMBuNGy1lvr2X9PNaW6bwrb52mRoilz04qTMvds60++5lK8RPQ642YZPQcgKZ9/Z2m9lSWMhavP5HVNn9m28bDsPVPslxyxmvLUyAydNSJM7se9VnxIxE6b+Ivp4emCJ2fh0Wcn1x21MzE68miG0oT1w39qIbN8Dnz2ACVn3RYda7J4erlkzDOj61PKs8mxI8J6CRNU7Xv3Vlvr2X9LKOfEh52ZdFTwcUFu+p2zaQTP2IjV6CqfDoy0w8/rdhZOkBNbGTx+i0LBsBnMxo9Fw8/zowy2k3FkSvFdPvXk9E4h9eOR7PEQ+ILaVw/ODuayZRefzxEubD+3DDmjKP8uMUh4VryOIDDOncj1s5vr7bUo54y708eEVCeIbPy+bz82DIrT624DYXpxGips6rq8X5yI7+Yp7PvKR/9Z769CeP6GY+YTNIUR7dl39vUaLF8vVHTmZFuZ9mWZzpCdBk/YmA3Gk5Pal8Fp/PC6DkATbvTgZI6sez9+fNHHKdu4wQAAMD3dBMdwQEAAG4dQRMAAIABgiYAAAADBE0AAAAGCJoAAAAMEDQBAAAYIGgCAAAwQNAEAABggKAJAADAwA8KmtLf8kp/tf1O/5ZV+ko52/S2yE+T4t+N89K8qOnot9++0Kqf5olfjf1E20Od6H9lzazr+sd7rfLRv6Go8qV/k3KXtyZ++zLrpo6XT9heE7d3fqt/fF1n/yb7aVc+8fFyYvWXlGfjQdOuQM5NcTnHv+Be/vphauYXylf9nozv5/tfbQ+7bzL2VEGlrxfZprdFfsodfpk+P506LvV7nPG7dEdhmp9QRrIQx2nuQqMPMv3jyIc8edJXFXOr6/DpzMl45orrpvMNMc3PJJcmO+n0l5eO1fo/6XiPL3Les7zKb5l3Txd8nfpm7Mz2eupDvuJ4tymfHLU9ntOT9/uRzNN86Wnarv3z1sdOHS8XlGctFttb+/xgwOb8du3jXatdf7SrnA/1j6E7MnzrSpjuo3D+KC/6B8zTFFkXXy+MfrDXmv7R1eofydQ/Apr9UU79Y6PZHx89OL0eY/pHQkt+6LXyc23T2yI/RvT69A/E7v6Wq64jTeUn/uFX149/cDe7tmXgJz+ee+JHbLPb0FTZWOenYn8l6wly66jFcv3VZdHQ8Z4R5+HE/snK7ivT95go3d4w/RHtss/5pONLMy4f/cPJ8Q94p/NXkt0HVdtqXZ51WGyv9fFopcb57drHe4bN8aWZ7F9r6fYerU3tQ/8ob5dfL248aAobOYnq9Zfu1xMnJ5v0tsiPCV2H0s/R69W/dJ+8YK6J/Ox+ZT+dLTp50ojfm9RfXWaNnCTq5OdEOTSSL8v1V39mM8d7lvlJvYH6VqF6e8vPkzp9aZabqM8FpuUTuM3ul1KGx4ttedZhvL2XnB8uVVUfrn28Z1ht3zXOh4rOQ3V9sDiODY+vz+nTpG9RepN0RmSw1rc405kjK+nf7W6TtWQarWVw4d3fjzdX7p10Jsu5F3fzfnRLzja9LfJz3nYylpkbyJOuJ+0n8WUmL5YrXr3MRB5+pXP1rJ6HIsGTVFXX1mAtUUVlnvT0e+cX19+sS/JTpv0UiAyfm23WyDi//uaP9zqaqG/Wth/ylv4z6zOOLyvbiSyke/X9cvHxUlGe1iy2t+nj0Uad89u1j/dTrnE+PO9NPgw31rQ8b7QjuPmGnreV9036TyO26W2RHxOvi4243d/qMqq15NEXmdlcxdK28yC+Ctb3oc7CD79qHOXqi8Jw48uo4TNE7fxUaf2WB3W8vV7rLGq0/iaP93ourm+2tipY1BcRf1S4iHzO8WUlfJeNvpjoPGf6zMSdZ9MkF7v0eKkszxostrfx49FU3fPbtY/3Klc6H2qtXw+yWbwe18XVi9rSjbyH6fwpFuV5xaBpI0MnrXAdFcGdsRk6aeXsqO94TTIpsSzb9LbIz1n6m97Gle7vwwHWTq5iZt+y1fs9ZygPy0vvWqzUBaziW/9JW5mMZ+Ke+AZaT938nNKSe9fwxFJL+fqvd7zXcGl9M3DY3nRy9Hari8jRSfoTji9LWx0ZyIv0VZ7fHpb7zrbzx3fpNdI53f54MS9Pe+bbe43j0cBF57drH+9lrnU+TLWfJJChOPuBAOnI047ajyYdzi3L84pBk4rawqSy6QbMc9xg15N9qap+k2xr9LWPAPJzzvZ1IRu3cHvctMlkfwCcagK+stXz1b5VfRfXO97tXVTfDB22dzeFEnZFxo5XGKl3/ePLVqhvfc1mMvOXslYH1a6YWu2pzLsLeb60jGocL+blae/q23uJWzi/2br6+bAlg3WoAqexOHEQ7Ujn7UGW4VpUlTitRnneaPPcgzR3x9M2sv6ab97Vflp+tnFTifoqmf8mqQ4EfUfiZJNJfAAsGjyhtGts6zW/VdXJzzm6Oeia35ZN1t/k8W7rgvp2kZa0BlNZLx9kNs7evbj28WXPuddf16ubLt4ualtt6nipKk975tt7jePxhEbOb9c+3ouufJdpTwVO0/UhiF5Ppd3S++nEttYsz88JmlSEHq0H6cw5bZlGaoPTOf1MhUsfgvXroeLA1m3X7v3RzrRNb4v8nLB9jZtK9ncps5O+Y1nVZLI/ANaNfgOr3NZKoTopHTcf6BbqeNmFX4Pt83OGKu83FbRkWqaadXb9zR/vVurWt6aknbuz191rH++2dJ+R62n4eCkpT1s229v48VilqfPbtY/3I9c9H54UH9sV23pBed7onaa8zYWhvO6fULYO3Vted/4ssk1vi/xUK20q2alqMlnph9AtpBs2GzBp7elSHha9ygcuxg+v24/+0nQQcHwB1tffuEnhwgza5+c0Xd7qK7X6nnYdddZfVreupVZ9a5IOhNSf7Jfhax/v1tSX3qW/kUVJ72GV/Qs7Qjd8vJSUpzWL7W36eCzV4Pnt2sf7seueD6ttZdLTQdH0eFsvLc+veE5TkSrAymc2NPWci6Wff5ZDuPQj161+0Jdtelvkp4x+Tk/FM2pSuq7k6oP6XHX4lT+ETr+m8nQx/XwR/dyW3IeEcRnozzapnqfquDXb/JSWg0qvn2/SRB2yXP9nHO87p9dXo77VULW94VI/t6b8tWsf7zvG5R0/Y0eX1S4HaX072u/NOFVH6pSnNZvtbeD8UKnO+e3ax3tG3eP11P61F+pnmx6EKv5Q++Ow7zLqlGdB40FTfJJRla04lRZQvAHl6XPThSetRBgFcSVO1un65yqPbXpb5CenpC5kd3t8cOZeTx5adry8MBkcBEb0E4fV9uoT6W7d8Taf2ej4KcWZ9zRTlxXD/Bx9/n5SJ5Xg8rxYrf+TjvfqPOkpfdhdzfpm5ez2VpzYY9c73o3Kp4wKDvzMe5vM087J4+Wi8qzBZntrnh/OsT2/Xft412rXH+Xk/q1L1YtDuat9cKLcm7he3OlASSXe+/PnjzjOp/USAwAA+Cf8E32aAAAAvhpBEwAAgAGCJgAAAAMETQAAAAYImgAAAAwQNAEAABggaAIAADBA0AQAAGCAoAkAAMAAQRMAAIABgiYAAAADBE0AAAAGCJoAAAAMEDQBAAAYIGgCAAAwQNAEAABggKAJAADAAEETAACAAYImAAAAAwRNAAAABgiaAAAADBA0AQAAGCBoAgAAMEDQBAAAYICgCQAAwABBEwAAgAGCJgAAAAMETQAAAAYImgAAAAwQNAEAABggaAIAADBA0AQAAGCAoOlGbCee3N3dqcmTyTZd+AW2q754cT52kyeeN5EvzNKnuJXy/1lW0tdl3l+l8wBw2wiaslTAcAgWqqbrXFRbg7VE0VL8dP5LbCfS67xJdxmqvETptJb1eiCtNImVU+Xp9WWyup3opOny364m0vdud3ubturfiUe0CeCbI2jKak/jQGGprpxukA0cdtMXBzVXtn1dyMYfyaBdK0Q6dqo8108i4558x5sM+q6V01mIjA7bHI5EFh2HwCKnLVNdPtN2Og8At42gyYqT/sXlWjIYPchsPEnnv4lVX5yhSBCuZZoJPlsqgFyHgcjQ+ZaBIgD8BARNZ+l+F331X62lvhmvZbC/FqZ9MtSk7yDk+wN50q+8q7BV11Yv13fIU1fSJu9B6OYhL9c85FU2D03SdM5wIzLrHN4TT7ttvwLnXtzNe8n6tzJR5ZPLh6fyUVFAutz7avvy5TmRbWWBXq/8J+OZuME8U0cyWgOZB67MXpIt1k1ayefrMi5us8pfZZ5syudQR/dNy1u1TJVXblmGTXnu6k5nJrJRAeEu/f59JcfAof9YOhlEkWb1ue7xCACG/v79G2Wnj4+P6Kdb+hK5Qbibi3xxo/1siTi966rJj5ZpunAZRK5I5C+T+YMwCnTaYKn+tROqdbiR6OVnPsuEXperPji/muQzDtt1LAxUHo4zfLF8eWYsfbXNQTqzo8tbpdf5z7ylujwVlTCbVlvqbRG1P9L5g2uW//m6ogpZfUYmX/G8+lw33eZ0saa3wVXlk19djfKJpXkL/LieBruKqveByk/uM6zKM1G5j88wqXO29dnueAQAcwRNJfRJV8WTmel80FR2QSm7IOhlVReXOP1FF22lNBDZ0QFD9YXj84ImdVFW+SwLUE7mIQ04TIunbFuvWv7FgKhUIbCK31MdcBTzW798kmBL1426m3eq7lwtaKpRn22ORwCw0Xjz3NGt95Ipezf+2unrUheAtBOvWedvN3iS891Zt/I8FOn+Lu9o3RqMLu5ovnqZidv9nc4VteR399A89JnyTTeO9F7uZR5mmzoTr4uN+I8VJdkaSNedyXPt7F+//Otxq/P0uyuyeE3nLi0fV4J5zZGQX6RufTY7Hu19l/MbgHoaD5qSodvpCKmKKTtY5trpm/Egvxq50oTp3+v5eFO5bSazjToEoZGESxWazBZyCAXyZp3yi4WedLert49835RkeH/hYqPmVXxRcOXyb/1SNeVNCtnL236oFMX6dKZ+Ffp92ZaPLfPyvL5bq8/f8/wGwBQdwc/Sw6Kn+2+t+ptg/WHj1x999+vh8ovmtSUjybqy6JV3MveX5ReL3bTO3p7So9Xi4f1zCbPp1nPpummavWuXf1vu3Y0sXqvLP3msw2PhLsiZQMu9z6W3Kh9bVuV5ff9CfQbwcxA01bB5r3vHoiVPgW5tKb8IbCdjmaX/rqv96Msm05yTtz3dvPOZ9Eiy7puMC20Ng5Fv1XwYN98Ec/Xtu1VodioLHK5f/jr/m2Gv/AGo+uGhw7Lyrw60dJAlmeYp2/KxZVee1/fP1GcAPwJB0ydrDdQ39kVPvEl2OHkyBN5R18eLv8y3p7J8WBwPEVczE68ni254M7f347J46+T7aOj8yzjO/6owxn0bD5XXfToOy517N76oHpLqoebJ07h1U1XRZ5R/8jgmL5fPePh78gCnkvL35eFd5UkVRHaLVxNPeouuzLN3jizLx5Ztee7E7xs+Zx57oMp0kgz5v+iBnv9QfQbwAzB6LiMefr0bMXdi2o/ASUck7afdiJ1kVM9heXFEVjpcOvPeZEh1Zn0XjvKJh1hn8+CqPOzGX+cUt6EwVY5cMlBSnkcjrHZpCp9zlH9Vhq4f7IeQH6SPC9inU5+RDjXf74Ojbfic8vdz5Z8Z5p+VGXEXP2Jglz7e3uIw+wPT8olHjO3THE/Hm1mnPBP5/O/eV8iQwTFWVvRm9bnu8QgAZu50oKROJHt//vwRx+HJ18Cn2E7Ec95llOk3BwC4TTTPAQAAGCBoAgAAMEDQBHyR+LfnnKFsZCad9HlIF3WaBgBcFX2aAAAADHCnCQAAwABBEwAAgAGCJgAAAAMETQAAAAYImgAAAAwQNAEAABggaAIAADBA0AQAAGCAoAkAAMAAQRMAAIABgiYAAAADBE0AAAAGCJoAAAAMEDQBAAAYIGgCAAAwQNAEAABggKAJAADAAEETAACAAYImAAAAAwRNAAAABgiaAAAADBA0AQAAGCBoAgAAMEDQBAAAYICgCQAAwABBEwAAgAGCJgAAAAMETQAAAAZuLGhaSf/uTu76q3T+37WdeHKnt+XOk8k2XYibcNg36fSV9W07ES/Nh/dJFWXV/9zPA4Dv4mTQNPEyFxY9eZP0lTS4yUyffQLWJ/5bPum3BmuJoqX46fylbm17byI/q36uDhYnTwVDZTlM9k0UT2Hgpku/SGsga5WPZVMV5RwVpI1nrrhfvNkA8C86GTQN1slF318mF5hoPUhekLZM04tOfLL3l7IetJKXLpKud9pO54ET2tN9HXSDcB8IxVMYSvetI843uGvZpNXzUDb+SEYP6QIAgLEzzXNtuVffSN8+bveODlCq1UqC/tmY5tGd9C5T8MSXEgCow7JP03Gfo4839S3/3knntGzTXdqfZ6uWedV9fGz6mOyaDDszkc3Qyb9PTeVNRluZ9Auf4fVl1djFdCsrtf5d35Q4HxVNQ9p21Y/LI59+ItuSN9TZXpv126pX/jpPE/Gyzb0qf5PmdkC57Yeo6tkI6/zn6rye1P5QdWJi2KyZbxpvpl/cpDcUCebSyE1hAPiBzgZNvx7UxfE9TGZWL6KulSKzFxUaxQvkfSPy8Ct7Ft413aX9eV774vVe5H40T5pNlg8ydPq5gMKmj8lgnaQrbZJR03EzoQ7iHFnISMLwkC4c3cvYuZPLW29UQOb1ZHw/kvk+H6H6tLE43rj0ot1ynuRpvo77suzyM7pfiKPKpZgd++21W7+tOvnRAWXv5ZfM0/fG03ouv1561+sXpYMWHST4o4uDBOv8675WzvhQ5+NpHteJYXwAnfd75IvrBhLG711fHuioPA03vowuXhEA/FxngyZHt8+lVi/qjO+64qpQ4NBi50ruRlPORoaLe3WxmcqgnZ6s434oU/msU/d2MpaZ7nM1besWm71WeyDrMJC3Tj6As7Wd9GTRnatgQa0/XabWrjZzLWFXl0AJlZFsXrS2ChwDdyYvFwdxyrXXb0NdrDtv3aT800UJXUZz6S6cBgLXkrteTkcF+CpIuLQpyjr/KljrvEkQqkBnV+djSZ2I+wCeoe+89l4e1XEzKHxmXSqwH89UkPukvtIAAOoya557+4j/xE1xKkDouhtZvKpQ42zzhyvBvKkTfz2vi434jxWXitZAbctMnmtftLfyPBTp/i7fwtZg1NjouX+VDrTd7u90rqglv7uuzBqI5I7veoVx0Dp2vIuCMuv867uxbrfyzlB7Wn43LhHKxFMB0/uoJEi7wOqZu0wA0ICzQVMraZ+T7XYii40bBwj7JrvwXTbyILnWuRs062TuQBSm4eaSju5ps6Ul3T8m399FTWpexXeNuPb6behAO998+1laKmidynr5ILPxpPbdRNv8b5M3pHN2NsOxLNTfh6ogvxbuMgFAU4w7goc6QFLfoPVNlfajf+jX5N5LZevcjdg/MqFiqv+4hBpbvuqL01GXxtE87a+STmt9By9Nc4lrr9+SDrC/dPSlcy+uCvrrhbf2+Y+/ZKR3Zm25wVzW65HI+LK7Y3lh3O+w2Hy578jf3AcBwLd3PmjSFx15k7H6tqq/QcfhRbxsppYljXNfcR/B1GDkN9L8U64lT4EkTZUl4v5U6b934uYedXGctluFcmumFK+9fls6wN4sXtO5ou3p5tMmxHdDa4W3Mev8tx/F3yyqR7upoPbu7lSH/LZM51156zQzYi5eXzZ4Tqd9R36eiQYAxgzvNG1ko648+4tD3BdILdULazZFXEp3UN8MnzOPDdjKatKPh9nnRjS1p7KUcTzkflUYc7+Nh4XrEXT1r06tge4MrEdRZR8xkDyCwFnoXl15cb7VRfiQlW3anJY0FVYx3d6667dlVf4Pi+NHHqgZPepw0Q1VgJcua1j8mIBO0jRVO2S0zn87DqSHTuGRBCq9rhN3nTfxl9PTTWX6KeFhVxa9Jh+LAQC42N+/f6Ps9PHxob6IZi0j9aU0Upf/KAjTRUoYuGqZROrbaroksVteNfnLNOHO0i9Nl52O3pNaqs9SQck+nev60TLM52cnXAbq9ex61Xv9QKVPE1wkVJtRyIvKtFqalp2a9huRpD3kY5fvKAp2+XODNG2e2fbWX7+ti8rfVfXp0sI/W3dcVXcKn1GzvtnmX6f3S+rb8e5S603TZI+lpZ9/b+Ewq21fB3ZT1cEFADhypwMldfLc+/PnjzjOrfdSAgAA+FzGHcEBAAB+MoImAAAAAwRNAAAABgiaAAAADBA0AQAAGCBoAgAAMEDQBAAAYICgCQAAwABBEwAAgIEbC5pW0te/ws4vrwMAgBtzMmiaeCqA0UHMbvIm6StpcJOZcj/S+glW/c//zFPiH4fNlpfnyWSilp38RXsAAPCvOBk0DdZL8dVffxlJFKlpPUhekLZM9byalkkCWQ9q/458Rrrea/3s/ZVsJ54443cZzdNy0tN8JO+LoWzSNAAA4N92pnmuLfeuyNvH7dzRuUWvi434o6m0s3FjSwWA80BU8QEAgG/Ask/TcZ+jjzcR995J57Rs050ncQvaVi3zvPyyDH2nZt+spacTfZp2TYadmchm6OTfp6byJrutTPqFz/D6srp2LNgayDpSwVQ6K6v+/vOzm5jb/qptz5WhnjzxVNpJVTOlVXr78llN+uJl0ns6vVp2aMLNs00PAMCtORs0/XpQwcl7mMysXkTFKiKzl7SfzkreNyIPv7K3WHZNd0nTnryqi2XvRe5H86TZavkgQ6evLtMHrcF636wVBqfvzQzWSTrdLOgG4f59u+m4mVAHcY4sZCRheEgXju5l7OSDl7p+d12ZdTy1rq1sTwVi7Wn82cVN3G1/5bbrYMsZH8ownuZqi8YyjHdIgVV6+/LR/ck6i3uZZ9Kv54/ysijLjH16AABu0dmgydHtc6nVi7rIua648iaHFjtXcjeacjYy1BfL9VQGu7arOHCYShM9oExsJ2OZ6T5X07a0Mh/aag9kHQby1skHcHXooCcMRyLjnjgq0NjdqZk0citLBTWdNwnC9aEMYy1VlOukT1mOXfra5fPwK5c+bo4cHWXmwDY9AAA3xqx57u0j/hM3xXXn0nU3snhVl9LthwqfTnElmA8+LUAqE/c3eqzoWN4aqG2ZyXMDd5taOghY7+6YhRLOH+V97MTNTxeFTvruntuVqn727Wnh7ppl+jrlo9exvH8pNLd5MpGnzGCBA9v0AADcorNBUytpn5PtdiKLjSvd361Dk134Lht5kFzr3A2adQ4X6+I03Fyjo3srDaJC8TfDi4KyrY5UH36lc+fZptfqlE97MJV12tQWN7et5/LrpVf5GAjb9AAA3BrjjuChDpDcrqiYSdqP/qFfk3svla1zN2L/yISKqZnHJZRpxaMPLxEHremdPhO26bVmykc3/43kYdg76uhfzjY9AABf63zQ5NzHfZjG41nSL2W/bKaWJY1zt3yjaTDyVXzXQPtbFd3punIE2FbeN6f6fBloP4q/WVQHFvGIvMwDNC3TW5fP1vKBnbbpAQC4UYZ3mjay2cih70vc10Ut1Qstm4Kaojuob4bPmWHx2/2w9lyTT3sqSxmL15+otPlIYhsPy9cjxKoiDEObYbz+3OrVzKTfkzd/dNS/KB5tlwtUkrz3dFvYkbY8BSJDx8t3LFfrX+nHBHTexF9mHmtgm75W+cykEz+SILfBav0dmZVsr316AABu0N+/f6Ps9PHxEeUtI18kEnGjIEwXKWHgqmUSudmFym551eQv04Q7S780XXY6ek9qqT5LxW77dK7rR8swn5+dcBmo17PrVe/1A5U+TVCXzr8bqPX7R+v3C2VzEEaBnyknV5Wtysih7PJlren8+yX5r9jcWumNyidU6USXs6oXKt/Z9H5QsqNs0wMAcKPudKCkLmJ7f/78Ece59V5KAAAAn8u4IzgAAMBPRtAEAABggKAJAADAAEETAACAAYImAAAAAwRNAAAABgiaAAAADBA0AQAAGCBoAgAAMEDQBAAAYICgCQAAwABBEwAAgAGCJgAAAAMETQAAAAYImgAAAAwQNAEAABggaAIAADBA0AQAAGCAoAkAAMAAQRMAAIABgiYAAAADBE0AAAAGCJoAAAAMEDQBAAAYIGgCAAAwQNAEAABggKAJAADAAEETAACAAYImAAAAAwRNAAAABgiaAAAADBA0AQAAGCBouhHbiSd3d3dq8mSyTRd+ge2qL16cj93kiedN5AuzZGElfZ3n/iqdx/fC/gXwtQiaslTAcAgWqqbrBDWtwVqiaCl+Ov8lthPpdd6kuwxVXqJ0Wst6PZBWmsTGxCuUnQq+EunFLzN5nxwprvqf/5mnbFcT6WfLy+vLZPVvhKp13Fr5A4AJgqas9jQOFJYqcnGDbOCwm744qLmy7etCNv5IBu06IdKxwTopL3+Zlp8KvhJtmaZlqstaJZD1oInPTNc7bafz/wZ9l9HpLERGhzoXjkQWHYfAIuff3L8Avg+CJitO+hdm2nLvirx9cOGvtOqLMxQJwrVMM8FqSwXw6zAQGTpCaxQA3AaCprN0U1Jf/VdrqW+6azncFDk0M+k7Avn+QJ70K+8SbNW10sv1HfLUlbHJ0EI393i55h6vsrln14zmDDcis87hPfG02/YmHPdJ+XgTce+zwWi26S5tCt2qZSr/uWUZh/5g6XQiythta2cmslEBSe59aiq/s7OVidpfubSeKpcGdthkPBM3mGfqVEZrIPPAldlLsj26SSv5fL1PinlS9amyDtnkv0b5q3qvX8/X54lsS9Zfp/xt9u+OWf0/bKvd8Qvgx/r792+UnT4+PqKfbulL5Abhbi7yxY32syXi9K6rJj9apunCZRC5IpG/TOYPwijQaYOl+tdOqNbhRqKXn/ksE3pdrvrg/GqSzzhs17EwUHk4zvBFdNns17n0I1Xl1KTKKVmgyrasjLS03AM/LtdgV7DxOvzCth2YbkN+H5+S5DEuz0zy6v1r43zdUhukPmdXXko8r+tamqd0sbZU2+66QaFs6ubfovzVirPr1nReDvv5mHn555nsX9v6b3f8AvjJCJpKxBd6dcI8TOeDprILRNkJXi+ruljE6c9dRM/RFzV14SynA7bqC4FpwGEju864nHKB4amgIbnY622xKQ7TbTC9aJ9cXxrQ1N5dxYCoVKGM4vdU513nN/ta/fzXK/+sU3XNtPyLzu7fGvXf5vgF8LM13jx3dCu9ZMreXb92+rrUCT3tlGvW+dsNnuR899StPA9Fur/LOz23BqOLO5qvXmbidn+nc0Ut+d09NPd8mreP+E/cFNedS9fdyOJ1q4rjQ9SiE1wJ5vVG7jXldbER/7Fiz7YGaltm8vzJxanLpbIO/e6KKtx07tL8f33526pb/82OX3vf5XwIINF40JQMnU9GAFVN2cEv107fjAf51ciVI0z/Xo8OTB6ayWwjWr8eRDbvst1OZLFJLvbJIlUW4btsGivb65l1yi9GetLdwGp3dG/9Ulv/JiffHgeWxTI6U2aqvLPXyavlP5U8LqFw8VbzKl77dDdX/7/l+RD4uegIfpYe5jzdfwvV3+zqDwO//ug7HZDc4mi1UAdIblf0DZL2o6+u5C/Jhd29v/kxif7ukQkVU/3HJejRheldtwrJYyAeC3dBzgRaqkyz6a+Xf0WP/osflzCXMLvetb6jmKb5RLda/wF8DwRNNcR3SWppyVOgW0/KT+rbyVhm6b/r0gHJJtM8k7c93VxzDc69uOoiPx6rLXv4lTT1xMtmalnSOHc79wWODUb+VZsz9fo3w175A1P1w0aHZfurOtDSQZZkmqeunf+4OSyYi35cQn4/fs1evbn6D+BbIWj6ZK2B+ga+6Ik3yQ4PTx5B4Kjr3cVfzttTWT4sjod8q5mJ15NFN/yC2/Ub2WzkcLGK+9KopXqhCqS+gnPvqmDlOTPsXu2DSTLkPHcnUZenjOPyXBXG0G/jofi6z0h+uRW1/uRxTF5uPfHw9+QBTiX7y5eHd1WH+vlHDKwmnvQWXZln7xxdOf9xOaog5bBqPXQ/ebq5bvqrYlz+tm6y/gP4Nhg9l7EfEn9m2o+oSUcY7afdCJxklM5heXGEWDr8OfPeZIh0Zn0XjtqJh0xn8+CqPOzGU+cUt6EwVY5EMrVbf74M4pFJanlxBNVuedV0VCwG+6yqKOMh+pl0yZDzsjIqKU+1Pa4f7IeoX0qv38/tr8ww/6zMiLt8/nV+isPsD0zzb13+aV3OptkN3d8fAxV1yKj8a+5fs/pf9/gF8FPd6UBJnRj2/vz5I47Dk6+Bm7SdiOe8yyjTzw4A8DlongMAADBA0AQAAGCAoAn4R8S/PecMZSMz6aTPQ7qo0zQAwAp9mgAAAAxwpwkAAMAAQRMAAIABgiYAAAADBE0AAAAGCJoAAAAMfJugaTvx4iHYd3de+Y+fAgAAXOB00LTqp4FIyeT1ZXLJD5U2rDVYSxQtxU/nL6V/dNTzsturgrGJWnbXl+v9ZjwAALhVp4Om9lQFIpEsVSTiBmH87/20fhIZ96T/DSMIfdfKGb/LaJ7Z3vlI3hf6wYIAAOAnuqB5riWD0YPMxpN0/vt4XWzEH02l3UoXaK22TOeBuOksAAD4WS7r0+Tci7t5L2mu2sqkv+tjtGve6ktVa9521Ze+54mXSe/1J7KtbP3bykqtP59+pZZeWWsg6+yvy2eaL7N33A79q9RUdStuu4q3eZ/uTm2PSjvpV/w0hlV6u/LXVpN+vjx1erXszisPim3TAwDwr7ssaArfZePeH4KImLq43zmykJGE4aF5Kxzdy9jJBxc7LedJnuZrFZAc0o/uF+I4Zf2HVEDg9WR8P5L5Pn2oPm0sjjeWtzTVJX53XZl1PJXX7YnATUmbL4PC7aekf5Xa5uILOzrYcsZyP5qn+dfTPN6G4SxNk2WV3r789W+adRb3Ms+kX88f5WVRlhn79AAAfAv6t+ey08fHh7oG5i19idwgTOe0MAqXfuSKG+UWKypQiMRfpnMFYaDe46t3m1ExR1RclV5/Pi8H8WeX5KmOMFxGvqvXJ8nk+lGwLF9xWT618rJQ6z2Rx+Oytktfp/z1Okrfo/axuEE6c2CbHgCA78D4TtNm6OybYu7uHOm96DsNaxlk+/0ocX+gx/y9p73WQLruTJ4rWqzO28rzUKT7u/ChqdZg1NjouZbuw7RO7hipaEPC+aO8j1UZeJPLmgFXLzJzu0flttOeRrLOvmiZvk7563Us718KzW2eTORJovUgTXVgmx4AgO/AOGjKjp4Llyo0mS3kNX2taNY5XEyL03Aj8vaRDzv08P58fx01qXl1/S8I07+frZUGUaH4m+EFQZ/a1o83kYdf6dx5tuk12/LX2oNprnl0vZ7Lr5deef8qxTY9AAD/ulp9mlptdcEMu7LolfU5Et1ys7+Ylk35Oyl9cToLkdFcwmw6dRHuHnUJctK/X6Ul9xXdlEy1fj3oqCWdO882vWZV/pVa0p6O5GHYM3xYqG16AAD+LfU7grcGMu++ybjQs3gw8mX2Yn4rZvUyEzeYy7TdUpfdrLILe0ueApHFa/lVeTsZy8VdkXWn68oRYFt537hyf0ns1n4Uf7OoDiziEXmZYNQyvW35q0ITqwd22qYHAOCbuGj0XGswl+5bJz8iqz2VpYzjRwasCkPPtvGweT2C67DcuXdls3jNjFLbps11SVNSUfyZC90MlH3EQPIIAmchzTxHaTM8fuSBmpn0e/Lmj476F8Wj7XKBisrPpC+9sg2Qdhz4DR0v/0R1tX69DXedN/GXmcca2Ka3LP/ETDrxIwlyG6zW35FZyfbapwcA4Bs4OXpOj4bajR5Lp6ORa7s0hVFT4TKIXDf7Xjdy/SA6HoAWqlVkRqmpyXX9OJ0elRYvOxqRlbxHBUiH9/hLvTTyd8vKRneZSEeAxaMDC/n3q4awqU8OstvguvFIu2Q0X/Le4lt1+fgl5RNWfESd9Ebln46oWxZHC8bbW1KGtukBAPgm7nSgpC56e3/+/BHH+eq+QwAAALflouY5AACAn4KgCQAAwABBEwAAgAGCJgAAAAMETQAAAAYImgAAAAwQNAEAABggaAIAADBA0AQAAGCg2aAp/jHXO7lTU+F3fIFatqv+vk4lkyeeN8n87uD1bSde5vPV9JWVO3OMeZW/4tysVf9an7eS/leXJwBYOBM0pSe1M9P+ZNoayDqKJGjkV3O/N30h+qyLnolby09MBQi9zpt0l6FEql4l01rW64HU+k1gFYCV1d/d5KmLd1kJtAbr/eeHX12502Ns6afz16b2wXjmissxDQAmd5pcCcLdBSsJiPzlYf7TTt74cbavC9n4Ixm0a4VIx9rTfZ11g2wgpqYwlO5bRxzueuSsnofxPhg9pAsa1ZapLvtpO50HgNtGnyZAa7VksF6KPxvLrd1w+zLpXabgiaAGALQzQZOT/q3m3Ffdt9/Kqp/pC+L1T1yMtjLJpk3Tr5q8eG1X0veyn+HFzTGTimap7WoinpfNjyeTowwdmi/1OvL9bzzpl6x3kq6zMxPZDJ007WEqbyIzLZ/Pyo89s/JM7PLkDDcis87hPfGktjtN17jth7yl/7yUzfbGLOtn0a7Mdu9tYrdNekORYC6Dhm707dTpI7aa5Pu2ebr+q2V33iRNcezwOc2UBwDI379/o+z08fERnRK4EvnLdKaCTqNWHblBmC6JonAZRCq8KnnvMvJ1WvVCeEh+In0NS1/lx42CZeYDolAtdo/yqenlcX7S+USSvphWW/pqHa56zfWj3Uecy3/8npJ1HbMvn+vmx55tee6Egdo/VRm+QOm2hqqcVb3V+TzFJE/W22tZP7XiNoRqHa4bFD7zAnGeVP3Zz16nfpiVpzqf6G3LFU+yv/TyKrvzUFUZAoCtqwVNZSepshPkyZNmqC/0/oUXAh10qAtSxUqOLgb6YlF5Ig5Ltz8+qWcuMDunts30IlSnfK6ZH2s1ynPn5LZfICmfkikTZFY5myfr7bWsn6nscp2n4yDtEkk+s597rfphso/j/VWW5mRZp+uO9211+QKAjav1aXr4ZXZP/3WxEf+xos9EayBddybPl7THrF5k5nYrmxja00jWmRdXLzNxu7/TuaKW/O66Mns5zpAbPMk1en7ULZ9r5cdW3fK8NhUA5DuCR6GEXZGx4130uAzr7bWsn3mhTDxPeu8jWU/b9UYUllk9y3Djy6jpdrmadBks718KzXOeTORJovUgTXXsMOpx3XgTI4Cf6SY6gs86h5NhcdLdWt4+6ndI2H686QgunTsvSX5bZ9hrls+13WJ5lmupi+xU1ssHmY3rPwfKdntt62fWZjiWhfr7UBVU17KVyVgFfjcSdO+09b7JBLnr9Vx+vfQa63MHACZuImjyM48wKJuqv2mf1/r1oKOKdO68JPltnYivWT7XdovleZJzL+7mXcJ01pbt9trWzyw3mKvgYSQyvuzuWF4o7yoQLw4K2A8UaO6DLtSS9nQkD8MenbwBfJovD5oGI/+6zTPtR/E3i+oTa/zAw8OIrPajL5vFazpXtD3dXHYFVy+fK7u18jwrfBcVMxiMGy1nvb2W9fNYW6bzrrx1mhohlj47qTAtd8+2+uxnKsVPQK83YpLRcwCa9vV3mtpTWcpYvP5EVtv8mW0bD8PWP8lyyRmvLU+ByNBRJ87setRnxY9E6LyJv5wemiJ0fh4WcX5y2VEzE68ni24oTVw39KMaNsPnzGMDVH7SYdW5Joerl0/COD+2Pqk8mxA/JqCTNE3Vvndnvb2W9bOMfkp42JVFTwUXF+yq2zWTTvyIjVyBqvLpyEw//LRiZ+kANbGRxeu3LBgAn81o9Fw8/Dgzymg3FUeuFNPtX09G4xxeOx7NEg+JL6Rx/eDsaCZTev3xEOXC+nPDmDOO8uMWh4RryeMADuvcjVg7v73aUo96yrw/eURAeYbMyufz8mPLrDy14jYUphOjpc6qqsf7yY38Yp7Ovqd89J/59iaM62c8YjJJUxzdln1vU6PF8vVGTWdGup1lW57pCNFl/IiB3Wg4Pal9FZzOC6PnADTtTgdK6sSy9+fPH3Gcuo0TAAAA39NNdAQHAAC4dQRNAAAABgiaAAAADBA0AQAAGCBoAgAAMEDQBAAAYICgCQAAwABBEwAAgAGCJgAAAAM/KGhKf8sr/dX2O/1bVukr5WzT2yI/p+jfget7+fWX/gRe/IOuaZqyqaFf5b+1/NiX/7Xrz63ZJr8l6DVZ5p/p+sd7rfLRv6Go8pWt40389mXWqp+s96LfvGzKJ2yvif2+SvNw9NuWn67+8XWd/Zvsp135xMfLidVfUp6NB027Ajk3xeUc/4J7+euHqZlfKF/1ezK+n+9/tT3svsnYUwWVvl5km94W+amm65AzFnmcrw/rH4ksnLTeZLV+yYP4skzTZacwcNNEl7m1/Gi3sr+sjvca6euIL3Les7zKb5l3T5f5dpI50Tb0+Xtnzm+e+pCvOL5syidHbY/n9OT9fiTzNF96mrZr/7z1MfWlYzxzxS3L1gXlWYvF9uqLsP7x9EN+POmrC9dW5/nCyqTrqDN+l+4oTPMQykgW4jjHgfQkl4fspPPTRKW+oP5op/ZvbfrH0B0ZvnUlTPdROH+UF/0D5mmKLJvyLGX0g73W9I+uVv9Ipv4R0OyPcuofG83++OjB6fUY0z8SWvJDr5Wfa5veFvmpJf4BVuMfjE1+pPhb5ufm9pfd8W6fvj6bfaTLQ6fd/W1KaTmH6Y9ol33OJx5fxuWjfzg5/gHvdP5Ksvugaluty7MOi+2Ny1Cl1T/InU2+DPzkx7UvylP1sVJZRhX1J8lnkMvjpezOgUmez+1fa+n2Hq1N7UP/KG81yrPgxpvnmvnh4NXLTPzRIJ07aD/6slm8pnMHtultkZ9PsH2VxcaV7u8GvwVfosH8fMv99eVWoopJ/Md2XC4ye2m4Oayg1ZLBein+bHx0J/0W99ekt5DufCpN3lQ6kt6FCJ7a6QILJ8qzDuPtVXnuDR9kuZ7KQCXOJm8PpjJXkdxl2jKN1jIoyYdtfWgN1rJ8GEqv0WYxC5fs3xO2H2/idn/nyj7W+lVyHF9enp8TNOlblN4knRFVufUtznTmyEr6d7vbZK3KDbTx8ebKfVn85dyLu3k/OjnaprdFfuzp29y9oRgfcNvXhWzcrlwrZvrK/Nz8/rI63hXb9FewnYxl5gYS7872k/gyk5drVOSs7Ye8pf/M+orj6yR1sVMhxMXn4XMm8QE1r/85FeVpzWJ7V8/xSUBdisvpQCW6UmXWwbU8qMDAQvspEBk+N9uMaeji/VvLm3wYbqxped7onSbzDT1vK++b9J9GbNPbIj/G1Mlr1wHT6bxJNzQPoEOdSXUANHp83kR+bnh//cNeF5vMt9WWJDebrhiebNWXQ30R8UeFOnSD+yt8l42+mOg8FzvPpkkupgLn4caXUd0ramV51mCxvR8qSnv4dflRba3uXZvWb3lQ19fXz46aLt2/J7R+PcR3iI42afWitnQj72E6f4pFeV4xaNrI0EkrXEdFcGdshk5aOTvqO16TTEosyza9LfJjrDWQddpRb6kuYkPdsc/oYD80tTTqJvJzq/vL7ni3T39F+s5Coem06Sa6w/ktnRx9nlMXkaOT9CceX4Z084fIi/RVnt8elvvOtvPHd+k10jl9K5PxTNwTd2yKzMvTnvn2rlSAW3FX8Jr0lzdnKA/LOq0wLbl3DQOJxtjvXyvtJwlkKM5+IEA68lR9sRWT1lHL8rxi0KSitjCpbLqH1TlusOvJvlRVv0m2NfraRwD5sdeS9nQdjyDq9A7NOJXUNwx9Am06Zjr4yvzc6v6yO97t01/Pruk0d8JsuInucH7bTaGqPyJjxyuM1PuK4+u0+C7pbCYzfynraTu9G6eOgvZU5t2FPF9aRqtn67sQ5uVp7+rbe4n9Bf7zm7Brq7F/7ej+bKEKnMbixEG0I523B1mGa1FV4rQa5XmjzXMP0twdT9vI+tqROPmpqzUYib9ZnO3oGbdN+4/X+VaT8TX5+Xf2179hGzfNyWaYv3OhTrz6/tf1muhaqv5MZb18kNk4e/fi9vaXc6+/rlc3Xbxd1JeiqbsQVeVpz3x725+7r+IL/OLCgEk3/37m3bEr32XaU4GT+iK7D6LXuhO/3k8ntrVmeX5O0KQi9Gh9PBqknO7drjY4ndPPVLj0IVi/HioObN127d4f7Uzb9LbIzzVt434G7qffM6/SfH5ufn9ZHe+KbfompaMa93e9spO+A3btUXRp5+7sdffWji/dZ+R6wrgPV7G5TbfYxstsbxuVlKctm+2t3FdN21/g15fdYVL1/U0erjZA5ljD+9dGfGxXbOsF5Xmjd5ryNheG8vFQwpJ16DsAuvNnkW16W+SnnmSE05kRaOlF8DMeNfBV+flX9te/oLRpbuczRtHpQEj9yYbUN7e/VFC79DeyKOk9rLJ/YUdo/SX5OGDV8WrcBGd7RSspT2sW29ueLuVh0au82xw/3HI/GrwmtQ59gdcDTy4KmBRd3/Vov+bORuc0vH+NbePHRjwsp8fbeml5fsXDLYtUAVY+VMr24VlVlr6b+4xw6UfuiQd92aa3RX4qhMvIVXXHD5b6eXWpMFrqemBQp3YPcGvMreUndVv1x+54t09f3+nzR6jycfpBmvrcdOn5p+r8Fi6D+OGHZa9d+3jfMT6/6oc9xmW1y4E6BlQer1G3tVPXhDrlac1me+MHYar6nHsSZppenzsuqT5qv+t1lD5kU79Wlp/S5ck5q+k6VPf6fGr/2gsz52ZFnbN9tT8O+y6jTnkWNB40xScZVdmKU2kBxRtQnj43XXjSSoRREFfiZJ2uf67y2Ka3RX4qqSMgvmik644nw6fz6qcCN3cwpm4tP7Hb2F9Wx7tim76O+MnQJZ+RTGq/6UQl557saSa+GOReT99n4+z5reLEHrve8WVUPmX0E5Yz7230mE8d5S27Uy4qzxpstledI/T+yp4j4vQXZue4HhamwkW+et8mX/yaULv+KCf3b12qXhzKXe2DE+VuW55l7nSgpBLv/fnzRxznVvqDAAAA3IZ/ok8TAADAVyNoAgAAMEDQBAAAYICgCQAAwABBEwAAgAGCJgAAAAMETQAAAAYImgAAAAwQNAEAABggaAIAADBA0AQAAGCAoAkAAMAAQRMAAIABgiYAAAADBE0AAAAGCJoAAAAMEDQBAAAYIGgCAAAwQNAEAABggKAJAADAAEETAACAAYImAAAAAwRNAAAABgiaAAAADBA0AQAAGCBoAgAAMEDQBAAAYICgCQAAwABBEwAAgAGCJgAAAAMETQAAAAYImgAAAAwQNN2I7cSTu7s7NXky2aYLv8B21Rcvzsdu8sTzJvKFWfoUt1L+P8tK+rrM+6t0HgBuG0FTlgoYDsFC1XSdi2prsJYoWoqfzn+J7UR6nTfpLkOVlyid1rJeD6SVJrFyqjy9vkxWtxOdNF3+29VE+t7tbm/TVv078Yg2AXxzBE1Z7WkcKCzVldMNsoHDbvrioObKtq8L2fgjGbRrhUjHTpXn+klk3JPveJNB37VyOguR0WGbw5HIouMQWOS0ZarLZ9pO5wHgthE0WXHSv7hcSwajB5mNJ+n8N7HqizMUCcK1TDPBZ0sFkOswEBk63zJQBICfgKDpLN3voq/+q7XUN+O1DPbXwrRPhpr0HYR8fyBP+pV3Fbbq2url+g556kra5D0I3Tzk5ZqHvMrmoUmazhluRGadw3viabftV+Dci7t5L1n/ViaqfHL58FQ+KgpIl3tfbV++PCeyrSzQ65X/ZDwTN5hn6khGayDzwJXZS7LFukkr+XxdxsVtVvmrzJNN+Rzq6L5peauWqfLKLcuwKc9d3enMRDYqINyl37+v5Bg49B9LJ4Mo0qw+1z0eAcDQ379/o+z08fER/XRLXyI3CHdzkS9utJ8tEad3XTX50TJNFy6DyBWJ/GUyfxBGgU4bLNW/dkK1DjcSvfzMZ5nQ63LVB+dXk3zGYbuOhYHKw3GGL5Yvz4ylr7Y5SGd2dHmr9Dr/mbdUl6eiEmbTaku9LaL2Rzp/cM3yP19XVCGrz8jkK55Xn+um25wu1vQ2uKp88qurUT6xNG+BH9fTYFdR9T5Q+cl9hlV5Jir38Rkmdc62PtsdjwBgjqCphD7pqngyM50PmsouKGUXBL2s6uISp7/ooq2UBiI7OmCovnB8XtCkLsoqn2UBysk8pAGHafGUbetVy78YEJUqBFbxe6oDjmJ+65dPEmzpulF3807VnasFTTXqs83xCAA2Gm+eO7r1XjJl78ZfO31d6gKQduI16/ztBk9yvjvrVp6HIt3f5R2tW4PRxR3NVy8zcbu/07milvzuHpqHPlO+6caR3su9zMNsU2fidbER/7GiJFsD6bozea6d/euXfz1udZ5+d0UWr+ncpeXjSjCvORLyi9Stz2bHo73vcn4DUE/jQVMydDsdIVUxZQfLXDt9Mx7kVyNXmjD9ez0fbyq3zWS2UYcgNJJwqUKT2UIOoUDerFN+sdCT7nb19pHvm5IM7y9cbNS8ii8Krlz+rV+qprxJIXt52w+VolifztSvQr8v2/KxZV6e13dr9fl7nt8AmKIj+Fl6WPR0/61VfxOsP2z8+qPvfj1cftG8tmQkWVcWvfJO5v6y/GKxm9bZ21N6tFo8vH8uYTbdei5dN02zd+3yb8u9u5HFa3X5J491eCzcBTkTaLn3ufRW5WPLqjyv71+ozwB+DoKmGjbvde9YtOQp0K0t5ReB7WQss/TfdbUffdlkmnPytqebdz6THknWfZNxoa1hMPKtmg/j5ptgrr59twrNTmWBw/XLX+d/M+yVPwBVPzx0WFb+1YGWDrIk0zxlWz627Mrz+v6Z+gzgRyBo+mStgfrGvuiJN8kOJ0+GwDvq+njxl/n2VJYPi+Mh4mpm4vVk0Q1v5vZ+XBZvnXwfDZ1/Gcf5XxXGuG/jofK6T8dhuXPvxhfVQ1I91Dx5Grduqir6jPJPHsfk5fIZD39PHuBUUv6+PLyrPKmCyG7xauJJb9GVefbOkWX52LItz534fcPnzGMPVJlOkiH/Fz3Q8x+qzwB+AEbPZcTDr3cj5k5M+xE46Yik/bQbsZOM6jksL47ISodLZ96bDKnOrO/CUT7xEOtsHlyVh93465ziNhSmypFLBkrK82iE1S5N4XOO8q/K0PWD/RDyg/RxAft06jPSoeb7fXC0DZ9T/n6u/DPD/LMyI+7iRwzs0sfbWxxmf2BaPvGIsX2a4+l4M+uUZyKf/937ChkyOMbKit6sPtc9HgHAzJ0OlNSJZO/Pnz/iODz5GvgU24l4zruMMv3mAAC3ieY5AAAAAwRNAAAABgiagC8S//acM5SNzKSTPg/pok7TAICrok8TAACAAe40AQAAnCXy/wcdBxD/ioaZowAAAABJRU5ErkJggg==;" vertex="1" parent="1">
          <mxGeometry x="90" y="30" width="589" height="592" as="geometry" />
        </mxCell>
        <mxCell id="bf5EPzBGNftu-JXjtIzk-2" value="" style="rounded=0;whiteSpace=wrap;html=1;fillColor=none;strokeColor=#FF0000;strokeWidth=2;" vertex="1" parent="1">
          <mxGeometry x="265" y="552" width="16" height="26" as="geometry" />
        </mxCell>
        <mxCell id="bf5EPzBGNftu-JXjtIzk-3" value="" style="rounded=0;whiteSpace=wrap;html=1;fillColor=none;strokeColor=#FF0000;strokeWidth=2;" vertex="1" parent="1">
          <mxGeometry x="301" y="551" width="16" height="26" as="geometry" />
        </mxCell>
        <mxCell id="bf5EPzBGNftu-JXjtIzk-4" value="&lt;font color=&quot;#ff0000&quot;&gt;PGM: write val = &quot;77&quot;&lt;/font&gt;" style="text;html=1;align=center;verticalAlign=middle;whiteSpace=wrap;rounded=0;" vertex="1" parent="1">
          <mxGeometry x="370" y="410" width="120" height="30" as="geometry" />
        </mxCell>
      </root>
    </mxGraphModel>
  </diagram>
</mxfile>
